<?xml version="1.0" encoding="UTF-8"?><svg id="Layer_10" xmlns="http://www.w3.org/2000/svg" viewBox="0 0 288.5 288.5"><path d="M251.87,159.84c5.65-8.45,5.65-22.73,0-31.19-1.37-2.05-3.02-3.67-4.89-4.84,1.28-1.8,2.19-3.93,2.67-6.35,1.98-9.97-3.48-23.17-11.93-28.81-2.05-1.37-4.2-2.23-6.37-2.6.49-2.15.51-4.46.04-6.88-1.98-9.97-12.08-20.07-22.06-22.06-2.41-.48-4.73-.46-6.88.03-.37-2.17-1.23-4.32-2.6-6.37-5.65-8.45-18.84-13.92-28.81-11.93-2.42.48-4.55,1.39-6.35,2.67-1.17-1.87-2.79-3.52-4.84-4.89-8.45-5.65-22.73-5.65-31.19,0-2.05,1.37-3.67,3.02-4.84,4.89-1.8-1.28-3.93-2.19-6.35-2.67-9.97-1.98-23.17,3.48-28.81,11.93-1.37,2.05-2.23,4.2-2.6,6.37-2.15-.49-4.46-.51-6.88-.04-9.97,1.98-20.07,12.08-22.06,22.06-.48,2.41-.46,4.73.03,6.88-2.17.37-4.32,1.23-6.37,2.6-8.45,5.65-13.92,18.84-11.93,28.81.48,2.42,1.39,4.55,2.67,6.35-1.87,1.17-3.52,2.79-4.89,4.84-5.65,8.45-5.65,22.73,0,31.19,1.37,2.05,3.02,3.67,4.89,4.84-1.28,1.8-2.19,3.93-2.67,6.35-1.98,9.97,3.48,23.17,11.93,28.81,2.05,1.37,4.2,2.23,6.37,2.6-.49,2.15-.51,4.46-.04,6.88,1.98,9.97,12.08,20.07,22.06,22.06,2.41.48,4.73.46,6.88-.03.37,2.17,1.23,4.32,2.6,6.37,5.65,8.45,18.84,13.92,28.81,11.93,2.42-.48,4.55-1.39,6.35-2.67,1.17,1.87,2.79,3.52,4.84,4.89,8.45,5.65,22.73,5.65,31.19,0,2.05-1.37,3.67-3.02,4.84-4.89,1.8,1.28,3.93,2.19,6.35,2.67,9.97,1.98,23.17-3.48,28.81-11.93,1.37-2.05,2.23-4.2,2.6-6.37,2.15.49,4.46.51,6.88.04,9.97-1.98,20.07-12.08,22.06-22.06.48-2.41.46-4.73-.03-6.88,2.17-.37,4.32-1.23,6.37-2.6,8.45-5.65,13.92-18.84,11.93-28.81-.48-2.42-1.39-4.55-2.67-6.35,1.87-1.17,3.52-2.79,4.89-4.84ZM233.27,95.31c5.73,3.83,9.88,13.84,8.53,20.6-.68,3.4-2.6,5.38-5.88,6.03-19.41,3.86-30.26,10.48-35.14,21.43-8.64-3.23-14.97-3.18-20.13-3.13h-.45c-5.22.05-8.17-.18-10.09-.52-.3-1.79-.72-3.4-1.13-4.89-1.38-5.06-2.07-7.6,3.54-13.21l.22-.22c5.72-5.78,10.89-8.93,14.57-10.64.32.52.64,1.03.97,1.56.74,1.17,1.51,2.4,2.3,3.73,1.42,2.39,4.96,8.39,6.78,17.38,1.92-2.6,4.14-4.86,6.55-6.82-1.49-5.02-3.63-9.88-6.45-14.64-.83-1.4-1.64-2.69-2.41-3.92-.02-.04-.04-.07-.07-.11,2.28-.66,4.25-1.07,6.16-1.47,2.15-.44,4.18-.86,6.45-1.59,4.42-1.42,9.47-4.5,17.24-9.7,2.78-1.85,5.53-1.82,8.41.11ZM207.76,64.97c6.76,1.35,14.42,9.01,15.77,15.77.68,3.4-.34,5.96-3.12,7.81-5.82,3.89-11.37,7.49-15.24,8.73-1.86.6-3.61.96-5.62,1.37-2.45.51-5.13,1.07-8.48,2.14-3.26-8.53-.52-18.63,8.89-32.7,0,0,0,0,0,0h0s0,0,0,0c1.85-2.77,4.41-3.79,7.81-3.12ZM133.1,43.28c5.73-3.83,16.57-3.83,22.3,0,2.89,1.93,3.97,4.46,3.32,7.73-1.37,6.86-2.74,13.32-4.6,16.94-.89,1.74-1.87,3.23-3,4.95-1.38,2.09-2.88,4.38-4.49,7.51-8.34-3.73-13.54-12.8-16.84-29.39-.65-3.28.43-5.81,3.32-7.73ZM95.31,55.23c3.83-5.73,13.84-9.88,20.6-8.53,3.4.68,5.38,2.6,6.03,5.88,3.86,19.41,10.48,30.26,21.43,35.14-3.23,8.64-3.18,14.97-3.13,20.13v.45c.05,5.22-.18,8.17-.52,10.09-1.79.3-3.4.72-4.89,1.13-5.06,1.38-7.6,2.07-13.21-3.54l-.22-.22c-5.78-5.72-8.93-10.89-10.64-14.57.52-.32,1.03-.64,1.56-.97,1.17-.74,2.4-1.51,3.73-2.3,2.39-1.42,8.39-4.96,17.38-6.78-2.6-1.92-4.86-4.14-6.82-6.55-5.02,1.49-9.88,3.63-14.64,6.45-1.4.83-2.69,1.64-3.92,2.41-.04.02-.07.04-.11.07-.66-2.28-1.07-4.25-1.47-6.16-.44-2.15-.86-4.18-1.59-6.45-1.42-4.42-4.5-9.47-9.7-17.24-1.85-2.78-1.82-5.53.11-8.41ZM64.97,80.74c1.35-6.76,9.01-14.42,15.77-15.77,3.4-.68,5.96.34,7.81,3.12,3.89,5.82,7.49,11.37,8.73,15.24.6,1.86.96,3.61,1.37,5.62.51,2.45,1.07,5.13,2.14,8.48-8.53,3.26-18.63.52-32.7-8.89,0,0,0,0,0,0h0s0,0,0,0c-2.77-1.85-3.79-4.41-3.12-7.81ZM43.28,155.4c-3.83-5.73-3.83-16.57,0-22.3,1.93-2.89,4.46-3.97,7.73-3.32,6.86,1.37,13.32,2.74,16.94,4.6,1.74.89,3.23,1.87,4.95,3,2.09,1.38,4.38,2.88,7.51,4.49-3.73,8.34-12.8,13.54-29.39,16.84-3.28.65-5.81-.43-7.73-3.32ZM55.23,193.19c-5.73-3.83-9.88-13.84-8.53-20.6.68-3.4,2.6-5.38,5.88-6.03,19.41-3.86,30.26-10.48,35.14-21.43,8.64,3.23,14.97,3.18,20.13,3.13h.45c5.22-.05,8.17.18,10.09.52.3,1.79.72,3.4,1.13,4.89,1.38,5.06,2.07,7.6-3.54,13.21l-.22.22c-5.72,5.78-10.89,8.93-14.57,10.64-.32-.52-.64-1.03-.97-1.56-.74-1.17-1.51-2.4-2.3-3.73-1.42-2.39-4.96-8.39-6.78-17.38-1.92,2.6-4.14,4.86-6.55,6.82,1.49,5.02,3.63,9.88,6.45,14.64.83,1.4,1.64,2.69,2.41,3.92.02.04.04.07.07.11-2.28.66-4.25,1.07-6.16,1.47-2.15.44-4.18.86-6.45,1.59-4.42,1.42-9.47,4.5-17.24,9.7-2.78,1.85-5.53,1.82-8.41-.11ZM80.74,223.53c-6.76-1.35-14.42-9.01-15.77-15.77-.68-3.4.34-5.96,3.12-7.81,5.82-3.89,11.37-7.49,15.24-8.73,1.86-.6,3.61-.96,5.62-1.37,2.45-.51,5.13-1.07,8.48-2.14,3.26,8.53.52,18.63-8.89,32.7,0,0,0,0,0,0h0s0,0,0,0c-1.85,2.77-4.41,3.79-7.81,3.12ZM155.4,245.22c-5.73,3.83-16.57,3.83-22.3,0-2.89-1.93-3.97-4.46-3.32-7.73,1.37-6.86,2.74-13.32,4.6-16.94.89-1.74,1.87-3.23,3-4.95,1.38-2.09,2.88-4.38,4.49-7.51,8.34,3.73,13.54,12.8,16.84,29.39.65,3.28-.43,5.81-3.32,7.73ZM193.19,233.27c-3.83,5.73-13.84,9.88-20.6,8.53-3.4-.68-5.38-2.6-6.03-5.88-3.86-19.41-10.48-30.26-21.43-35.14,3.23-8.64,3.18-14.97,3.13-20.13v-.45c-.05-5.22.18-8.17.52-10.09,1.79-.3,3.4-.72,4.89-1.13,5.06-1.38,7.6-2.07,13.21,3.54l.22.22c5.78,5.72,8.93,10.89,10.64,14.57-.52.32-1.03.64-1.56.97-1.17.74-2.4,1.51-3.73,2.3-2.39,1.42-8.39,4.96-17.38,6.78,2.6,1.92,4.86,4.14,6.82,6.55,5.02-1.49,9.88-3.63,14.64-6.45,1.4-.83,2.69-1.64,3.92-2.41.04-.02.07-.04.11-.07.66,2.28,1.07,4.25,1.47,6.16.44,2.15.86,4.18,1.59,6.45,1.42,4.42,4.5,9.47,9.7,17.24,1.85,2.78,1.82,5.53-.11,8.41ZM223.53,207.76c-1.35,6.76-9.01,14.42-15.77,15.77-3.4.68-5.96-.34-7.81-3.12-3.89-5.82-7.49-11.37-8.73-15.24-.6-1.86-.96-3.61-1.37-5.62-.51-2.45-1.07-5.13-2.14-8.48,8.53-3.26,18.63-.52,32.7,8.89,0,0,0,0,0,0h0s0,0,0,0c2.77,1.85,3.79,4.41,3.12,7.81ZM233.27,193.19c-2.88,1.93-5.63,1.96-8.41.11h0c-11.69-7.81-21.3-11.59-29.9-11.59-3.52,0-6.88.64-10.13,1.89-2.05-4.31-5.69-10.18-12.1-16.53l-.19-.19c-8.9-8.9-15.31-7.15-20.97-5.6-2.37.65-4.59,1.28-7.26,1.23-2.09-.02-4.97-.39-7.91-1.75-.21,2.42-.83,5.04-2.12,7.82,2.01.81,4.15,1.37,6.4,1.67-.3,2.39-.46,5.54-.42,10.05v.45c.05,4.79.1,10.18-2.77,17.66-.6-.14-1.19-.28-1.8-.42-1.35-.31-2.77-.63-4.27-1.01-2.69-.69-9.44-2.42-17.08-7.5.48,3.2.51,6.36.19,9.46,4.6,2.5,9.55,4.42,14.91,5.79,1.58.4,3.07.74,4.48,1.06.04,0,.08.02.12.03-1.15,2.08-2.25,3.76-3.32,5.4-1.21,1.83-2.35,3.56-3.44,5.69-2.12,4.13-3.51,9.88-5.33,19.04-.65,3.28-2.62,5.2-6.03,5.88-6.77,1.34-16.77-2.8-20.6-8.53-1.93-2.88-1.96-5.63-.11-8.41h0c7.81-11.69,11.59-21.3,11.59-29.9,0-3.52-.64-6.88-1.89-10.13,4.31-2.05,10.18-5.69,16.53-12.1l.19-.19c8.9-8.9,7.15-15.31,5.6-20.97-.65-2.37-1.28-4.59-1.23-7.26.02-2.09.39-4.97,1.75-7.91-2.42-.21-5.04-.83-7.82-2.12-.81,2.01-1.37,4.15-1.67,6.4-2.39-.3-5.54-.46-10.05-.42h-.45c-4.79.05-10.18.1-17.66-2.77.14-.6.28-1.19.42-1.8.31-1.35.63-2.77,1.01-4.27.69-2.69,2.42-9.44,7.5-17.08-3.2.48-6.36.51-9.46.19-2.5,4.6-4.42,9.55-5.79,14.91-.4,1.58-.74,3.07-1.06,4.48,0,.04-.02.08-.03.12-2.08-1.15-3.76-2.25-5.4-3.32-1.83-1.21-3.56-2.35-5.69-3.44-4.13-2.12-9.88-3.51-19.04-5.33-3.28-.65-5.2-2.62-5.88-6.03-1.34-6.77,2.8-16.77,8.53-20.6,2.88-1.93,5.63-1.96,8.41-.11h0c11.69,7.81,21.3,11.59,29.9,11.59,3.52,0,6.88-.64,10.13-1.89,2.05,4.31,5.69,10.18,12.1,16.53l.19.19c8.9,8.9,15.31,7.15,20.97,5.6,2.37-.65,4.59-1.28,7.26-1.23,2.09.02,4.97.39,7.91,1.75.21-2.42.83-5.04,2.12-7.82-2.01-.81-4.15-1.37-6.4-1.67.3-2.39.46-5.54.42-10.05v-.45c-.05-4.79-.1-10.18,2.77-17.66.6.14,1.19.28,1.8.42,1.35.31,2.77.63,4.27,1.01,2.69.69,9.44,2.42,17.08,7.5-.48-3.2-.51-6.36-.19-9.46-4.6-2.5-9.55-4.42-14.91-5.79-1.58-.4-3.07-.74-4.48-1.06-.04,0-.08-.02-.12-.03,1.15-2.08,2.25-3.76,3.32-5.4,1.21-1.83,2.35-3.56,3.44-5.69,2.12-4.13,3.51-9.88,5.33-19.04.65-3.28,2.62-5.2,6.03-5.88,6.77-1.34,16.77,2.8,20.6,8.53,1.93,2.88,1.96,5.63.11,8.41h0c-7.81,11.69-11.59,21.3-11.59,29.9,0,3.52.64,6.88,1.89,10.13-4.31,2.05-10.18,5.69-16.53,12.1l-.19.19c-8.9,8.9-7.15,15.31-5.6,20.97.65,2.37,1.28,4.59,1.23,7.26-.02,2.09-.39,4.97-1.75,7.91,2.42.21,5.04.83,7.82,2.12.81-2.01,1.37-4.15,1.67-6.4,2.39.3,5.54.46,10.05.42h.45c4.79-.05,10.18-.1,17.66,2.77-.14.6-.28,1.19-.42,1.8-.31,1.35-.63,2.77-1.01,4.27-.69,2.69-2.42,9.44-7.5,17.08,3.2-.48,6.36-.51,9.46-.19,2.5-4.6,4.42-9.55,5.79-14.91.4-1.58.74-3.07,1.06-4.48,0-.04.02-.08.03-.12,2.08,1.15,3.76,2.25,5.4,3.32,1.83,1.21,3.56,2.35,5.69,3.44,4.13,2.12,9.88,3.51,19.04,5.33,3.28.65,5.2,2.62,5.88,6.03,1.34,6.77-2.8,16.77-8.53,20.6ZM245.22,155.4c-1.93,2.89-4.46,3.97-7.73,3.32-6.86-1.37-13.32-2.74-16.94-4.6-1.74-.89-3.23-1.87-4.95-3-2.09-1.38-4.38-2.88-7.51-4.49,3.73-8.34,12.8-13.54,29.39-16.84,3.28-.65,5.81.43,7.73,3.32,3.83,5.73,3.83,16.57,0,22.3Z" style="fill:#414042;"/></svg>